<?xml version="1.0" encoding="utf-8"?>
<!-- Svg Vector Icons : http://www.onlinewebfonts.com/icon -->
<!DOCTYPE svg PUBLIC "-//W3C//DTD SVG 1.1//EN" "http://www.w3.org/Graphics/SVG/1.1/DTD/svg11.dtd">
<svg version="1.1" xmlns="http://www.w3.org/2000/svg" xmlns:xlink="http://www.w3.org/1999/xlink" x="0px" y="0px" viewBox="0 0 256 256" enable-background="new 0 0 256 256" xml:space="preserve">
<metadata> Svg Vector Icons : http://www.onlinewebfonts.com/icon </metadata>
<g><g><g><g><path fill="#000000" d="M10 213.8a26.8 26.8 0 1 0 53.6 0a26.8 26.8 0 1 0 -53.6 0z"/><path fill="#000000" d="M101.2 128a26.8 26.8 0 1 0 53.6 0a26.8 26.8 0 1 0 -53.6 0z"/><path fill="#000000" d="M101.2 42.2a26.8 26.8 0 1 0 53.6 0a26.8 26.8 0 1 0 -53.6 0z"/><path fill="#000000" d="M10 42.2a26.8 26.8 0 1 0 53.6 0a26.8 26.8 0 1 0 -53.6 0z"/><path fill="#000000" d="M10 128a26.8 26.8 0 1 0 53.6 0a26.8 26.8 0 1 0 -53.6 0z"/><path fill="#000000" d="M101.2 213.8a26.8 26.8 0 1 0 53.6 0a26.8 26.8 0 1 0 -53.6 0z"/><path fill="#000000" d="M192.4 213.8a26.8 26.8 0 1 0 53.6 0a26.8 26.8 0 1 0 -53.6 0z"/><path fill="#000000" d="M192.4 42.2a26.8 26.8 0 1 0 53.6 0a26.8 26.8 0 1 0 -53.6 0z"/><path fill="#000000" d="M192.4 128a26.8 26.8 0 1 0 53.6 0a26.8 26.8 0 1 0 -53.6 0z"/></g></g><g></g><g></g><g></g><g></g><g></g><g></g><g></g><g></g><g></g><g></g><g></g><g></g><g></g><g></g><g></g></g></g>
</svg>